<svg xmlns="http://www.w3.org/2000/svg" xmlns:xlink="http://www.w3.org/1999/xlink" version="1.1" x="0px" y="0px" viewBox="0 0 100 125" style="enable-background:new 0 0 100 100;" xml:space="preserve"><g><path d="M87,80V11c0-3-2.5-5.5-5.5-5.5h-54C24.5,5.5,22,8,22,11v69c0,3,2.5,5.5,5.5,5.5h54C84.5,85.5,87,83,87,80z M80,78.5H29v-66   h51V78.5z"/><path d="M35.4,39.5h21c1.9,0,3.5-1.6,3.5-3.5s-1.6-3.5-3.5-3.5h-21c-1.9,0-3.5,1.6-3.5,3.5S33.5,39.5,35.4,39.5z"/><path d="M35,51.5h35c1.9,0,3.5-1.6,3.5-3.5s-1.6-3.5-3.5-3.5H35c-1.9,0-3.5,1.6-3.5,3.5S33.1,51.5,35,51.5z"/>
<path d="M35,63.5h35c1.9,0,3.5-1.6,3.5-3.5s-1.6-3.5-3.5-3.5H35c-1.9,0-3.5,1.6-3.5,3.5S33.1,63.5,35,63.5z"/><path d="M16.5,24.5c-1.9,0-3.5,1.6-3.5,3.5v61c0,3,2.5,5.5,5.5,5.5h48c1.9,0,3.5-1.6,3.5-3.5s-1.6-3.5-3.5-3.5H20V28   C20,26.1,18.4,24.5,16.5,24.5z"/></g></svg>
