<svg xmlns="http://www.w3.org/2000/svg" xmlns:xlink="http://www.w3.org/1999/xlink" version="1.1" x="0px" y="0px" viewBox="0 0 100 100" enable-background="new 0 0 100 100" xml:space="preserve"><path fill-rule="evenodd" clip-rule="evenodd" d="M47.558,97.463c-2.056-0.141-4.234-0.555-6.364-1.242  c-2.424-0.782-4.865-1.53-7.064-2.857c-1.409-0.852-2.737-1.771-3.759-3.146c-2.021-2.721-3.463-5.754-5.003-8.738  c-1.688-3.271-2.4-6.772-2.355-10.428c0.012-0.948,0.176-1.906,0.388-2.833c0.089-0.388,0.431-0.768,0.75-1.042  c0.939-0.805,1.286-1.941,1.537-3.03c0.303-1.313,0.919-2.147,2.174-2.63c1.06-0.407,1.064-0.48,0.86-1.6  c-0.209-1.147-0.158-2.231,0.849-2.966c0.462-0.337,0.747-0.699,0.835-1.22c0.041-0.242,0.02-0.548-0.098-0.754  c-0.481-0.842-0.255-1.677,0.581-2.188c0.237-0.145,0.507-0.437,0.536-0.688c0.238-2.051,0.42-4.108,0.626-6.163  c0.046-0.458-0.145-0.728-0.552-0.944c-1.008-0.534-1.005-0.627-0.853-1.746c0.049-0.359-0.025-0.8-0.203-1.113  c-1.474-2.586-2.515-5.303-2.34-8.327c0.067-1.173,0.423-2.329,0.653-3.492c0.146-0.736,0.402-1.464,0.438-2.205  c0.078-1.628-0.001-3.264,0.071-4.893c0.156-3.548,1.445-6.733,3.227-9.754c2.237-3.792,5.574-6.233,9.554-7.933  c3.089-1.319,6.338-2.105,9.565-2.967c0.359-0.096,0.791,0.082,1.189,0.123c0.689,0.071,1.378,0.162,2.068,0.195  c2.058,0.1,4.079,0.363,5.863,1.491c3.428,2.167,6.914,4.25,10.049,6.85c1.379,1.143,2.229,2.666,3.208,4.117  c2.054,3.045,2.269,6.507,2.505,9.991c0.101,1.482,0.345,2.955,0.488,4.435c0.025,0.264-0.053,0.605-0.213,0.807  c-0.333,0.416-0.424,0.849-0.462,1.368c-0.132,1.802-0.313,3.601-0.514,5.396c-0.04,0.361-0.213,0.721-0.382,1.052  c-0.812,1.59-1.138,3.32-1.322,5.056c-0.288,2.713-1.25,5.156-2.604,7.488c-1.543,2.654-2.463,5.553-3.261,8.498  c-0.903,3.339-2.297,6.48-3.914,9.527c-0.181,0.34-0.477,0.636-0.768,0.897c-0.257,0.231-0.312,0.418-0.117,0.709  c0.748,1.121,0.995,2.401,1.242,3.701c0.149,0.786,0.864,1.216,1.537,1.542c1.023,0.497,1.226,0.886,1.055,2.044  c-0.191,1.304-0.682,2.475-1.321,3.613c-0.701,1.249-1.393,2.509-1.983,3.811c-0.871,1.92-2.303,3.42-3.571,5.047  c-1.964,2.52-4.729,3.981-7.408,5.524c-1.144,0.659-2.442,1.063-3.701,1.498C48.808,97.508,48.254,97.425,47.558,97.463z   M60.044,23.432c-1.292,0-2.589-0.065-3.876,0.015c-1.938,0.121-3.919,0.154-5.679,1.129c-1.021,0.565-2.031,1.182-2.94,1.908  c-1.107,0.885-1.831,2.13-1.89,3.531c-0.081,1.914,0.25,3.84,1.054,5.582c1.469,3.181,3.867,5.509,7.063,6.974  c4.29,1.966,8.836,2.966,13.491,3.563c1.262,0.162,2.286-0.158,3.185-1.049c1.826-1.811,3.306-3.859,4.341-6.216  c0.23-0.524,0.479-1.067,0.563-1.625c0.188-1.257,0.389-2.529,0.379-3.794c-0.019-2.264-0.2-4.526-0.287-6.79  c-0.021-0.568-0.316-0.962-0.738-1.215c-0.506-0.303-1.064-0.595-1.635-0.702C68.769,23.941,64.442,23.316,60.044,23.432z"></path></svg>